<svg xmlns="http://www.w3.org/2000/svg" width="2000" height="437" fill="none"><g clip-path="url(#a)"><path fill-rule="evenodd" clip-rule="evenodd" d="M2000 378.968s-285.12-85.434-663.89-20.468c-378.763 64.966-665.356 90.522-922.915 65C155.635 397.978-1.389 294.667-1.389 294.667V0H2000v378.968Z" fill="#e4ebe7"/><mask id="b" style="mask-type:alpha" maskUnits="userSpaceOnUse" x="-2" y="0" width="2003" height="437" fill="#FA6900"><path fill-rule="evenodd" clip-rule="evenodd" d="M2000 378.968s-299.99-64.966-678.74 0C942.492 443.934 667.282 447.522 409.722 422 152.163 396.478-1.388 294.667-1.388 294.667V0H2000v378.968Z" fill="#E0E4CC"/></mask></g><g clip-path="url(#c)"><path fill-rule="evenodd" clip-rule="evenodd" d="M2000 363.968s-285.12-85.434-663.89-20.468c-378.763 64.966-665.356 90.522-922.915 65C155.635 382.978-1.389 279.667-1.389 279.667V-15H2000v378.968Z" fill="#69D2E7"/><mask id="d" style="mask-type:alpha" maskUnits="userSpaceOnUse" x="-2" y="-15" width="2003" height="437" fill="#FA6900"><path fill-rule="evenodd" clip-rule="evenodd" d="M2000 363.968s-299.99-64.966-678.74 0C942.492 428.934 667.282 432.522 409.722 407 152.163 381.478-1.388 279.667-1.388 279.667V-15H2000v378.968Z" fill="#E0E4CC"/></mask></g><defs fill="#FA6900"><clipPath id="a" fill="#FA6900"><path fill="#E0E4CC" d="M0 0h2000v437H0z"/></clipPath><clipPath id="c" fill="#FA6900"><path fill="#E0E4CC" transform="translate(0 -15)" d="M0 0h2000v437H0z"/></clipPath></defs></svg>